<?xml version="1.0" encoding="utf-8"?>
<!-- Generator: Adobe Illustrator 23.0.4, SVG Export Plug-In . SVG Version: 6.00 Build 0)  -->
<svg version="1.1" id="Capa_1" xmlns="http://www.w3.org/2000/svg" xmlns:xlink="http://www.w3.org/1999/xlink" x="0px" y="0px"
	 viewBox="0 0 28.6 32" style="enable-background:new 0 0 28.6 32;" xml:space="preserve">
<style type="text/css">
	.st0{fill:#FFFFFF;}
</style>
<g>
	<g>
		<path class="st0" d="M13.8,31.7L13.8,31.7l0.6,0.3l0.6-0.3l0,0l8.3-4.6l5.3-3v-0.7V7.2V6.5l-0.7-0.3l-1.6-0.7L14.3,0l-12,5.5
			L0.7,6.2L0,6.5v0.7v16.2v0.7l5.3,3L13.8,31.7z M18.2,11.1l-3.8,2.1l-3.8-2.1L3.8,7.4l10.5-4.8l10.5,4.8L18.2,11.1z M15.5,28.7
			V15.1l10.8-6v13.6L15.5,28.7z M13.2,15.1v13.6l-10.8-6V9.1L13.2,15.1z"/>
	</g>
</g>
</svg>
