<?xml version="1.0" encoding="utf-8"?>
<!-- Generator: Adobe Illustrator 23.0.4, SVG Export Plug-In . SVG Version: 6.00 Build 0)  -->
<svg version="1.1" id="Layer_1" xmlns="http://www.w3.org/2000/svg" xmlns:xlink="http://www.w3.org/1999/xlink" x="0px" y="0px"
	 viewBox="0 0 70.3 64.2" style="enable-background:new 0 0 70.3 64.2;" xml:space="preserve">
<style type="text/css">
	.st0{fill:url(#SVGID_1_);stroke:#FFFFFF;stroke-width:3.6;stroke-miterlimit:10;}
	.st1{fill:url(#SVGID_2_);stroke:#FFFFFF;stroke-width:3.6;stroke-miterlimit:10;}
	.st2{fill:none;stroke:#FFFFFF;stroke-width:3.6;stroke-linecap:round;stroke-miterlimit:10;}
</style>
<radialGradient id="SVGID_1_" cx="35.89" cy="53.14" r="8.62" gradientTransform="matrix(1 0 0 -1 0 63.56)" gradientUnits="userSpaceOnUse">
	<stop  offset="0" style="stop-color:#FFFF24"/>
	<stop  offset="0.13" style="stop-color:#B8F62E"/>
	<stop  offset="0.39" style="stop-color:#21E243"/>
	<stop  offset="0.46" style="stop-color:#1BBA3D"/>
	<stop  offset="0.56" style="stop-color:#148636"/>
	<stop  offset="0.66" style="stop-color:#0E5B2F"/>
	<stop  offset="0.75" style="stop-color:#0A3A2A"/>
	<stop  offset="0.84" style="stop-color:#072227"/>
	<stop  offset="0.93" style="stop-color:#051425"/>
	<stop  offset="1" style="stop-color:#040F24"/>
</radialGradient>
<circle class="st0" cx="35.9" cy="10.4" r="8.6"/>
<radialGradient id="SVGID_2_" cx="35.15" cy="29.44" r="21.09" gradientTransform="matrix(1 0 0 -1 0 63.56)" gradientUnits="userSpaceOnUse">
	<stop  offset="0" style="stop-color:#FFFF24"/>
	<stop  offset="0.13" style="stop-color:#B8F62E"/>
	<stop  offset="0.39" style="stop-color:#21E243"/>
	<stop  offset="0.46" style="stop-color:#1BBA3D"/>
	<stop  offset="0.56" style="stop-color:#148636"/>
	<stop  offset="0.66" style="stop-color:#0E5B2F"/>
	<stop  offset="0.75" style="stop-color:#0A3A2A"/>
	<stop  offset="0.84" style="stop-color:#072227"/>
	<stop  offset="0.93" style="stop-color:#051425"/>
	<stop  offset="1" style="stop-color:#040F24"/>
</radialGradient>
<circle class="st1" cx="35.1" cy="34.1" r="21.1"/>
<path class="st2" d="M57.3,5.9c0,7.3-3.3,13.2-7.4,13.2"/>
<path class="st2" d="M68.5,42.5c0-5.3-5.5-9.6-12.3-9.6"/>
<path class="st2" d="M54,62.4C54,55,52.3,49,50,49"/>
<path class="st2" d="M16.3,62.4c0-7.4,1.8-13.4,4-13.4"/>
<path class="st2" d="M1.8,42.5c0-5.3,5.5-9.6,12.2-9.6"/>
<path class="st2" d="M12.7,5.9c0,7.3,3.3,13.2,7.4,13.2"/>
</svg>
