<svg xmlns:dc="http://purl.org/dc/elements/1.1/" xmlns:cc="http://creativecommons.org/ns#" xmlns:rdf="http://www.w3.org/1999/02/22-rdf-syntax-ns#" xmlns:svg="http://www.w3.org/2000/svg" xmlns="http://www.w3.org/2000/svg" xmlns:sodipodi="http://sodipodi.sourceforge.net/DTD/sodipodi-0.dtd" xmlns:inkscape="http://www.inkscape.org/namespaces/inkscape" version="1.1" x="0px" y="0px" viewBox="0 0 100 125"><g transform="translate(0,-952.36218)"><path style="text-indent:0;text-transform:none;direction:ltr;block-progression:tb;baseline-shift:baseline;color:#000000;enable-background:accumulate;" d="m 49.75,961.37851 a 3.0003,3.0003 0 0 0 -0.9688,0.25 l -36,16 a 3.0003,3.0003 0 0 0 -1.7812,2.75 l 0,43.99999 a 3.0003,3.0003 0 0 0 1.7812,2.7188 l 36,16 a 3.0003,3.0003 0 0 0 2.4376,0 l 36,-16 A 3.0003,3.0003 0 0 0 89,1024.3785 l 0,-43.99999 a 3.0003,3.0003 0 0 0 -1.7812,-2.75 l -36,-16 a 3.0003,3.0003 0 0 0 -1.4688,-0.25 z m 0.25,6.25 28.625,12.75 L 50,993.09731 21.375,980.37851 50,967.62851 z m -33,17.3438 30,13.3437 0,37.43749 -30,-13.3438 0,-37.43739 z m 66,0 0,37.43739 -30,13.3438 0,-37.43749 30,-13.3437 z" fill="#000000" fill-opacity="1" stroke="none" marker="none" visibility="visible" display="inline" overflow="visible"/></g><text x="0" y="115" fill="#000000" font-size="5px" font-weight="bold" font-family="'Helvetica Neue', Helvetica, Arial-Unicode, Arial, Sans-serif">Created by Aybige</text><text x="0" y="120" fill="#000000" font-size="5px" font-weight="bold" font-family="'Helvetica Neue', Helvetica, Arial-Unicode, Arial, Sans-serif">from the Noun Project</text></svg>